<svg xmlns="http://www.w3.org/2000/svg" x="0px" y="0px"
width="48" height="48"
viewBox="0 0 172 172"
style=" fill:#000000;"><g fill="none" fill-rule="nonzero" stroke="none" stroke-width="1" stroke-linecap="butt" stroke-linejoin="miter" stroke-miterlimit="10" stroke-dasharray="" stroke-dashoffset="0" font-family="none" font-weight="none" font-size="none" text-anchor="none" style="mix-blend-mode: normal"><path d="M0,172v-172h172v172z" fill="none"></path><g><path d="M17.91667,139.75v-86h136.16667v86c0,7.91558 -6.41775,14.33333 -14.33333,14.33333h-107.5c-7.91558,0 -14.33333,-6.41775 -14.33333,-14.33333" fill="#bbdefb"></path><path d="M154.08333,39.41667v21.5h-136.16667v-21.5c0,-7.91558 6.41775,-14.33333 14.33333,-14.33333h107.5c7.91558,0 14.33333,6.41775 14.33333,14.33333" fill="#1a237e"></path><path d="M129,39.41667c0,5.93758 -4.81242,10.75 -10.75,10.75c-5.93758,0 -10.75,-4.81242 -10.75,-10.75c0,-5.93758 4.81242,-10.75 10.75,-10.75c5.93758,0 10.75,4.81242 10.75,10.75M64.5,39.41667c0,5.93758 -4.81242,10.75 -10.75,10.75c-5.93758,0 -10.75,-4.81242 -10.75,-10.75c0,-5.93758 4.81242,-10.75 10.75,-10.75c5.93758,0 10.75,4.81242 10.75,10.75" fill="#1a237e"></path><path d="M118.25,14.33333c-3.956,0 -7.16667,3.21067 -7.16667,7.16667v17.91667c0,3.956 3.21067,7.16667 7.16667,7.16667c3.956,0 7.16667,-3.21067 7.16667,-7.16667v-17.91667c0,-3.956 -3.21067,-7.16667 -7.16667,-7.16667M53.75,14.33333c-3.956,0 -7.16667,3.21067 -7.16667,7.16667v17.91667c0,3.956 3.21067,7.16667 7.16667,7.16667c3.956,0 7.16667,-3.21067 7.16667,-7.16667v-17.91667c0,-3.956 -3.21067,-7.16667 -7.16667,-7.16667" fill="#b0bec5"></path><g fill="#1a237e"><path d="M71.66667,132.58333h-11.64583v-37.08033l-11.438,3.34683v-8.81858l22.016,-7.61458h1.06783zM121.83333,132.58333h-34.51108v-7.47483l15.90283,-16.70908c3.92017,-4.46125 5.87308,-8.00158 5.87308,-10.63175c0,-2.13208 -0.46225,-3.74458 -1.39392,-4.85183c-0.93525,-1.11442 -2.27542,-1.66983 -4.03842,-1.66983c-1.74867,0 -3.16408,0.74175 -4.25342,2.22883c-1.08933,1.4835 -1.62683,3.33967 -1.62683,5.55058h-11.481c0,-3.03508 0.75608,-5.83367 2.279,-8.4065c1.51217,-2.56925 3.61917,-4.5795 6.321,-6.02717c2.6875,-1.45125 5.70108,-2.17508 9.03,-2.17508c5.34633,0 9.46358,1.23267 12.34458,3.70158c2.88817,2.46892 4.33225,6.01283 4.33225,10.63175c0,1.94575 -0.3655,3.84492 -1.09292,5.69033c-0.72025,1.84183 -1.85258,3.78042 -3.3755,5.805c-1.53008,2.02458 -3.98825,4.74075 -7.38883,8.13775l-6.38908,7.38167h19.46825z"></path></g></g></g></svg>